<svg viewBox="0 0 512 512" xmlns="http://www.w3.org/2000/svg"><path d="m356.484375 155.515625v-155.515625h-200.96875v155.515625h-155.515625v200.972656h155.515625v155.511719h200.972656v-155.515625h155.511719v-200.96875zm-116.910156 272.546875c-11.574219 0-20.992188-9.417969-20.992188-20.992188 0-2.289062 0-7.648437 8.308594-20.8125l12.683594-20.105468 12.6875 20.105468c8.308593 13.164063 8.308593 18.523438 8.308593 20.8125-.003906 11.574219-9.417968 20.992188-20.996093 20.992188zm32.808593-43.566406c-9.972656 0-18.082031-8.113282-18.082031-18.085938 0-2.984375.640625-7.054687 5.394531-14.589844l12.6875-20.105468 12.683594 20.105468c4.757813 7.535157 5.398438 11.605469 5.398438 14.589844 0 9.972656-8.109375 18.085938-18.082032 18.085938zm20.285157-282.089844h-21.667969v34.933594h20.976562v132.402344h-20.664062l-15.3125 53.601562-15.3125-53.601562h-20.664062v-132.402344h20.976562v-34.933594h-21.667969v-30h73.332031v30zm0 0"/><path d="m250.023438 167.339844h11.953124v72.402344h-11.953124zm0 0"/></svg>