<svg height="512pt" viewBox="0 -61 512 512" width="512pt" xmlns="http://www.w3.org/2000/svg"><path d="m466.136719 120c-14.78125 0-29.683594-5.757812-40.125-16.199219-17.726563-17.726562-41.441407-26.226562-65.011719-24.910156v26.109375c0 57.890625-47.109375 105-105 105s-105-47.109375-105-105v-26.121094c-23.585938-1.324218-47.296875 7.191406-65.011719 24.921875-10.441406 10.441407-25.34375 16.199219-40.988281 16.199219-24.8125 0-45 20.1875-45 45v225h121v-90h-30v-12.757812l19.480469-63.785157c1.035156.183594 2.085937.207031 3.125.359375l20.578125 20.578125c31.933594 31.933594 88.945312 32.695313 121.816406 1.769531 16.113281 15.179688 37.835938 23.835938 60 23.835938 23.011719 0 45.539062-9.332031 61.816406-25.605469l20.574219-20.578125c1.042969-.152344 2.089844-.175781 3.128906-.359375l19.480469 63.785157v12.757812h-30v90h121v-225c0-24.8125-20.1875-45-45.863281-45zm0 0"/><path d="m256 180c41.351562 0 75-33.648438 75-75v-30c0-41.351562-33.648438-75-75-75s-75 33.648438-75 75v30c0 41.351562 33.648438 75 75 75zm0 0"/><path d="m316 300c-21.078125 0-42.039062-5.917969-60.160156-16.65625-17.621094 10.109375-38.144532 15.515625-59.75 15.515625-8.34375 0-16.546875-.945313-24.554688-2.566406 4.953125 7.203125 10.429688 14.066406 16.9375 20.042969-18.082031 18.980468-15.492187 49.585937 5.5625 65.257812 17.050782 12.695312 40.585938 11.3125 55.988282-3.089844l5.976562-5.566406 5.960938 5.550781c15.441406 14.441407 38.996093 15.746094 55.988281 3.121094 21.160156-15.757813 23.570312-46.355469 5.609375-65.246094 6.152344-5.636719 11.382812-12.109375 16.160156-18.902343-7.78125 1.625-15.714844 2.539062-23.71875 2.539062zm0 0"/></svg>