<svg height="448pt" viewBox="0 0 448 448" width="448pt" xmlns="http://www.w3.org/2000/svg"><path d="m171.808594 204.441406 48.070312-48.089844c3.125-3.121093 8.1875-3.121093 11.3125 0l37.257813 37.25c1.453125 1.472657 3.816406 1.519532 5.328125.101563.882812-.738281 1.410156-1.816406 1.453125-2.96875.027343-1.039063-.378907-2.046875-1.117188-2.78125l-42.914062-42.914063c-3.125-3.121093-8.1875-3.121093-11.3125 0l-53.734375 53.746094c-1.5625 1.5625-1.558594 4.097656.003906 5.660156s4.097656 1.558594 5.660156-.003906zm0 0"/><path d="m225.128906 254.238281c-1.003906-1.039062-2.492187-1.457031-3.890625-1.089843-1.398437.367187-2.492187 1.460937-2.855469 2.859374-.367187 1.398438.050782 2.882813 1.089844 3.886719l48.070313 48.105469c3.125 3.125 3.125 8.1875 0 11.3125l-36.671875 36.6875c-1.523438 1.554688-1.523438 4.042969 0 5.601562.71875.828126 1.78125 1.273438 2.871094 1.207032 1.058593.003906 2.070312-.417969 2.808593-1.167969l42.335938-42.328125c3.125-3.125 3.125-8.1875 0-11.3125zm0 0"/><path d="m326 167.921875c13.210938 1.101563 24.816406-8.710937 25.921875-21.921875 1.101563-13.210938-8.710937-24.816406-21.921875-25.921875-.679688-.078125-1.351562-.078125-2-.078125-12.878906-.015625-23.472656 10.140625-24.003906 23.007812-.535156 12.867188 9.183594 23.863282 22.019531 24.914063zm0 0"/><path d="m119.441406 378.335938 81.253906-81.257813c-2.136718-2.140625-4-4-5.597656-5.71875l-81.320312 81.320313c-1.5625 1.5625-1.5625 4.097656.003906 5.660156 1.5625 1.5625 4.097656 1.558594 5.660156-.003906zm0 0"/><path d="m312 256c-4.417969 0-8-3.582031-8-8v-17.046875l-8 5.328125v19.71875c0 4.417969 3.582031 8 8 8h60c2.210938 0 4-1.789062 4-4s-1.789062-4-4-4zm0 0"/><path d="m446.871094 201.472656c.175781 1.726563.265625 3.472656.402344 5.214844-.136719-1.742188-.226563-3.488281-.402344-5.214844zm0 0"/><path d="m447.710938 212.640625c.191406 3.757813.289062 7.546875.289062 11.359375 0-3.808594-.097656-7.59375-.289062-11.359375zm0 0"/><path d="m443.617188 179.785156c.078124.40625.136718.800782.214843 1.222656-.078125-.40625-.136719-.816406-.214843-1.222656zm0 0"/><path d="m206.6875 447.273438c-1.742188-.136719-3.488281-.226563-5.214844-.402344 1.726563.175781 3.472656.265625 5.214844.402344zm0 0"/><path d="m445.496094 190.511719c.152344 1 .246094 2.015625.382812 3.023437-.136718-1.007812-.230468-2.023437-.382812-3.023437zm0 0"/><path d="m224 448c-3.808594 0-7.59375-.097656-11.359375-.289062 3.757813.191406 7.546875.289062 11.359375.289062zm0 0"/><path d="m193.535156 445.878906c-1.007812-.136718-2.023437-.230468-3.023437-.382812 1 .152344 2.015625.246094 3.023437.382812zm0 0"/><path d="m181.007812 443.832031c-.40625-.078125-.800781-.136719-1.222656-.214843.40625.078124.816406.136718 1.222656.214843zm0 0"/><path d="m448 224c0-3.808594-.097656-7.59375-.289062-11.359375-.09375-2-.285157-4-.4375-5.953125-.136719-1.742188-.226563-3.488281-.402344-5.214844-.261719-2.664062-.632813-5.304687-.992188-7.9375-.136718-1.007812-.230468-2.023437-.382812-3.023437-.480469-3.199219-1.046875-6.398438-1.664063-9.503907-.078125-.40625-.136719-.800781-.214843-1.222656-20.621094-101.539062-108.078126-175.753906-211.617188-179.585937v23.800781c0 4.417969-3.582031 8-8 8s-8-3.582031-8-8v-23.800781c-7.691406.265625-15.367188.929687-22.992188 1.984375l4.144532 23.464844c.769531 4.351562-2.136719 8.503906-6.488282 9.273437-.460937.078125-.929687.117187-1.398437.117187-3.878906-.003906-7.191406-2.789062-7.867187-6.605468l-4.152344-23.511719c-7.53125 1.609375-14.972656 3.601563-22.300782 5.972656l8.167969 22.402344c1.503907 4.15625-.644531 8.742187-4.800781 10.246094-.875.324219-1.800781.492187-2.738281.488281-3.359375 0-6.359375-2.105469-7.511719-5.261719l-8.160156-22.402343c-7.136719 2.886718-14.117188 6.140624-20.917969 9.753906l11.925781 20.664062c1.453125 2.476563 1.46875 5.539063.039063 8.03125-1.429688 2.488282-4.085938 4.019532-6.957031 4.011719-2.871094-.003906-5.515626-1.546875-6.9375-4.042969l-11.917969-20.640625c-6.515625 4.097657-12.816407 8.523438-18.878907 13.261719l15.292969 18.242188c1.957031 2.171874 2.574219 5.242187 1.605469 8-.96875 2.757812-3.367188 4.769531-6.25 5.246093-2.886719.476563-5.800781-.664062-7.601562-2.964843l-15.328126-18.273438c-5.714843 5.160156-11.164062 10.609375-16.320312 16.328125l18.253906 15.320313c3.398438 2.832031 3.851563 7.882812 1.019532 11.28125-2.835938 3.394531-7.886719 3.847656-11.28125 1.015624l-18.234376-15.328124c-4.738281 6.0625-9.160156 12.363281-13.253906 18.878906l20.640625 11.917968c2.496094 1.421876 4.039063 4.066407 4.046875 6.9375.003906 2.871094-1.527344 5.527344-4.015625 6.957032-2.492187 1.429687-5.554687 1.414062-8.03125-.035156l-20.671875-11.929688c-3.609375 6.800781-6.867187 13.78125-9.753906 20.921875l22.402344 8.15625c3.652344 1.328125 5.820312 5.085937 5.148437 8.910156-.675781 3.828125-4 6.613281-7.886719 6.613281-.933593 0-1.859374-.164062-2.734374-.488281l-22.402344-8.160156c-2.375 7.324219-4.367188 14.765625-5.972656 22.292969l23.511718 4.144531c4.085938.71875 6.949219 4.441406 6.589844 8.574219-.363281 4.136718-3.824219 7.308594-7.976562 7.308594-.46875-.003907-.9375-.042969-1.398438-.121094l-23.464844-4.136719c-1.058594 7.621094-1.722656 15.292969-1.992187 22.984375h23.800781c4.417969 0 8 3.582031 8 8s-3.582031 8-8 8h-23.800781c3.832031 103.539062 78.046875 190.996094 179.585937 211.617188.40625.078124.800782.136718 1.222656.214843 3.144532.617188 6.3125 1.183594 9.503907 1.664063 1 .152344 2.015625.246094 3.023437.382812 2.632813.359375 5.273438.730469 7.9375.992188 1.726563.175781 3.472656.265625 5.214844.402344 1.976562.152343 3.953125.34375 5.953125.4375 3.757813.191406 7.546875.289062 11.359375.289062 123.652344-.140625 223.859375-100.347656 224-224zm-116.671875-119.863281c22.003906 1.867187 38.34375 21.191406 36.527344 43.199219-1.757813 20.714843-19.066407 36.640624-39.855469 36.664062-1.113281 0-2.222656 0-3.351562-.136719-22.015626-1.835937-38.375-21.175781-36.535157-43.191406 1.835938-22.015625 21.175781-38.375 43.191407-36.535156zm-176.496094 83.335937 53.734375-53.746094c9.5-9.0625 24.441406-9.0625 33.9375 0l42.921875 42.914063c7.574219 7.847656 7.464844 20.324219-.253906 28.035156-7.714844 7.714844-20.191406 7.816407-28.035156.234375l-31.601563-31.582031-42.398437 42.398437c-5.046875 5.089844-12.425781 7.09375-19.351563 5.25-6.925781-1.84375-12.335937-7.25-14.179687-14.175781-1.847657-6.925781.152343-14.308593 5.242187-19.351562zm-38.222656 208.085938c-8.113281.023437-15.433594-4.859375-18.535156-12.355469-3.101563-7.492187-1.367188-16.121094 4.390625-21.835937l87.3125-87.3125c3.121094-3.109376 8.171875-3.109376 11.292968 0 .46875.46875.875.988281 1.21875 1.554687 1.839844 2.125 9.160157 9.597656 15.367188 15.839844 3.121094 3.121093 3.121094 8.1875 0 11.3125l-86.902344 86.894531c-3.746094 3.769531-8.835937 5.890625-14.144531 5.902344zm173.597656-64.949219-42.367187 42.328125c-3.738282 3.761719-8.824219 5.871094-14.128906 5.855469h-.109376c-5.351562-.011719-10.472656-2.179688-14.203124-6.015625-7.625-7.847656-7.554688-20.355469.152343-28.121094l31.015625-31.015625-42.398437-42.402344c-7.808594-7.808593-7.808594-20.46875 0-28.277343 7.914062-7.558594 20.367187-7.558594 28.28125 0l53.726562 53.734374c9.375 9.375 9.375 24.570313 0 33.945313zm73.792969-50.609375h-60c-13.253906 0-24-10.746094-24-24v-24c0-2.675781 1.335938-5.171875 3.558594-6.65625l24-16c2.457031-1.636719 5.613281-1.789062 8.214844-.398438 2.601562 1.390626 4.226562 4.105469 4.226562 7.054688v24h44c11.046875 0 20 8.953125 20 20s-8.953125 20-20 20zm0 0"/></svg>