<?xml version="1.0" encoding="iso-8859-1"?>
<!-- Generator: Adobe Illustrator 19.0.0, SVG Export Plug-In . SVG Version: 6.00 Build 0)  -->
<svg version="1.1" id="Capa_1" xmlns="http://www.w3.org/2000/svg" xmlns:xlink="http://www.w3.org/1999/xlink" x="0px" y="0px"
	 viewBox="0 0 512 512" style="enable-background:new 0 0 512 512;" xml:space="preserve">
<g>
	<g>
		<path d="M466,30c-24.652,0-25.991,0-26.044,0c-0.002,0-0.003,0-0.002,0c-0.056,0-1.643,0-33.954,0c0-16.538-13.462-30-30-30
			c-16.538,0-30,13.462-30,30h-47.763C292.024,12.578,275.53,0,256,0c-19.53,0-36.024,12.578-42.237,30H166
			c0-16.538-13.462-30-30-30c-16.538,0-30,13.462-30,30c-27.003,0-32.527,0-60,0c-8.291,0-15,6.709-15,15v452
			c0,8.291,6.709,15,15,15s15-6.709,15-15V60c15.892,0,29.333,0,45,0v60c0,12.935,8.247,24.36,20.508,28.462L181,166.622V482
			c0,16.567,13.431,30,30,30c16.569,0,30-13.433,30-30c0-108.807,0-87.519,0-136c0-8.286,6.716-15,15-15s15,6.714,15,15
			c0,75.536,0,89.951,0,136c0,16.567,13.431,30,30,30c16.569,0,30-13.433,30-30V166.622l54.492-18.16
			C397.753,144.36,406,132.935,406,120V60c15.663,0,29.107,0,45,0v437c0,8.291,6.709,15,15,15c8.291,0,15-6.709,15-15V45
			C481,36.709,474.291,30,466,30z M346,98.379L281.122,120h-50.244L166,98.379V60h47.763C219.976,77.422,236.47,90,256,90
			c19.53,0,36.024-12.578,42.237-30H346V98.379z"/>
	</g>
</g>
<g>
</g>
<g>
</g>
<g>
</g>
<g>
</g>
<g>
</g>
<g>
</g>
<g>
</g>
<g>
</g>
<g>
</g>
<g>
</g>
<g>
</g>
<g>
</g>
<g>
</g>
<g>
</g>
<g>
</g>
</svg>
